<svg version="1.1" id="Layer_1" xmlns="http://www.w3.org/2000/svg" xmlns:xlink="http://www.w3.org/1999/xlink" x="0px" y="0px"
	 width="100%" viewBox="0 0 576 384" enable-background="new 0 0 576 384" xml:space="preserve">
<path fill="#000000" opacity="1.000000" stroke="none" 
	d="
M285.376953,280.275574 
	C269.779999,303.874939 241.443100,316.174347 215.649643,310.762085 
	C186.125824,304.567078 165.102814,283.326508 159.918030,254.453674 
	C152.600739,213.705246 185.317856,175.053925 226.750244,174.560577 
	C266.254547,174.090195 299.369202,207.421799 296.192657,249.147690 
	C295.350983,260.204132 291.792114,270.618805 285.376953,280.275574 
M221.730743,220.752304 
	C221.210083,213.925507 218.110703,208.382172 213.153427,203.826340 
	C208.256180,199.325684 204.467590,199.406906 199.801697,204.277786 
	C195.317566,208.958923 192.189575,214.523041 191.688110,221.030853 
	C191.270172,226.454620 192.415115,231.929153 196.841263,235.530655 
	C199.895752,238.016037 200.459427,240.717239 200.210815,244.203873 
	C199.242035,257.790283 198.414185,271.386780 197.423050,284.971466 
	C197.118408,289.146973 198.967316,291.258118 202.982697,291.612915 
	C204.635223,291.758911 206.309494,291.686279 207.973465,291.670837 
	C214.990479,291.605713 215.971512,290.779236 215.692688,283.952240 
	C215.129822,270.170624 214.375214,256.396790 213.686493,242.620422 
	C213.566330,240.216995 213.839569,238.080399 215.876480,236.330078 
	C220.353104,232.483215 222.099518,227.444336 221.730743,220.752304 
M255.784729,269.413910 
	C255.924103,260.413025 254.195923,251.500610 254.572662,242.474899 
	C254.683472,239.820358 254.899673,237.860611 257.561829,236.296478 
	C262.383362,233.463608 264.511353,228.758652 264.561920,223.265732 
	C264.612457,217.776398 264.388153,212.282516 264.183167,206.794388 
	C264.135986,205.532166 264.115143,204.034775 262.240479,203.547089 
	C259.921173,204.222687 260.338715,206.259827 260.330170,207.996460 
	C260.303925,213.329025 260.230835,218.666443 260.417847,223.993469 
	C260.586273,228.791534 258.359558,232.300140 254.218857,233.869644 
	C250.482285,235.285950 250.112991,237.613052 250.342133,240.838577 
	C251.308716,254.444809 252.255585,268.052795 253.098373,281.667053 
	C253.223022,283.680603 254.343536,286.390289 251.799973,287.509888 
	C249.365845,288.581360 246.447205,288.492523 243.978317,287.489044 
	C241.392639,286.438110 242.317459,283.902008 242.434860,281.775970 
	C243.205383,267.822388 243.911514,253.865204 244.688065,239.911957 
	C244.838837,237.202850 244.430862,235.301529 241.400223,234.080734 
	C236.831268,232.240295 234.604553,228.435425 234.645721,223.400665 
	C234.687973,218.234756 234.721786,213.067154 234.626953,207.902725 
	C234.597092,206.277100 235.452225,204.041321 232.772385,203.582031 
	C231.757462,203.948730 231.330505,204.647552 231.325363,205.535568 
	C231.284775,212.531479 231.130997,219.531143 231.307983,226.522156 
	C231.406967,230.431137 233.540344,233.673004 236.778244,235.602631 
	C240.730301,237.957855 241.856506,240.865753 240.675888,245.190048 
	C240.162872,247.069092 240.429352,249.158905 240.325851,251.152145 
	C239.851181,260.292572 239.765442,269.474854 238.795914,278.562714 
	C237.488464,290.818024 238.789627,292.475586 250.949539,291.681580 
	C254.749527,291.433502 256.909882,289.884613 256.670532,285.815247 
	C256.367737,280.666840 256.095795,275.516632 255.784729,269.413910 
M244.341873,207.381058 
	C244.152695,205.858826 244.903732,203.550583 242.394135,203.602051 
	C240.124115,203.648605 240.331802,205.830093 240.321838,207.443695 
	C240.290176,212.579483 240.317200,217.715988 240.371536,222.851700 
	C240.386993,224.312439 240.264526,225.982620 243.503601,226.022766 
	C243.764954,220.087448 244.028717,214.097427 244.341873,207.381058 
M251.353775,223.490204 
	C251.494293,224.693832 251.756226,225.998734 253.282486,225.820984 
	C254.823288,225.641541 254.670044,224.197205 254.671570,223.071182 
	C254.678955,217.623627 254.673370,212.175751 254.613846,206.728622 
	C254.597702,205.251419 254.569016,203.625793 251.321533,203.832184 
	C251.321533,210.068146 251.321533,216.377625 251.353775,223.490204 
z"/>
<path fill="#000000" opacity="1.000000" stroke="none" 
	d="
M299.753052,237.228241 
	C297.363312,213.648346 286.565094,195.579865 267.326263,182.547852 
	C265.629333,181.398376 262.851624,180.685318 263.923676,177.841797 
	C264.881378,175.301514 267.506653,175.847366 269.611115,175.845703 
	C303.768921,175.818680 337.926727,175.834488 372.084534,175.807632 
	C378.769806,175.802368 378.764465,175.738388 378.764832,169.224579 
	C378.765198,163.059586 378.667908,156.891678 378.829620,150.730743 
	C378.917999,147.364746 377.732422,145.662476 374.228577,145.937683 
	C373.567505,145.989609 372.891418,145.965897 372.231384,145.893677 
	C369.991852,145.648682 366.884064,146.348251 366.282532,143.486221 
	C365.628387,140.373840 369.308594,140.678986 370.866119,139.256790 
	C377.668823,133.045258 384.217682,132.740036 391.095154,139.126221 
	C392.186035,140.139175 394.226837,140.610809 395.794067,140.542587 
	C401.424377,140.297546 402.335419,143.460175 402.278168,148.159561 
	C402.113739,161.654053 402.262329,175.152008 402.203827,188.648239 
	C402.169281,196.614319 399.605682,199.136292 391.712158,199.130493 
	C370.717834,199.115051 349.723541,199.073120 328.729218,199.027618 
	C321.386719,199.011703 320.329987,200.041962 320.341858,207.373520 
	C320.343750,208.539795 320.357574,209.706345 320.386444,210.872253 
	C320.538055,216.996704 322.087006,218.604935 328.088776,218.646378 
	C335.919739,218.700424 343.752258,218.747650 351.582062,218.642975 
	C354.340210,218.606125 356.260223,219.285217 357.632935,221.939880 
	C359.527649,225.604095 362.880707,227.576675 366.979095,227.667023 
	C371.015869,227.755997 372.043976,229.903717 372.039703,233.442123 
	C372.016846,252.437073 372.029266,271.432373 372.135345,290.426941 
	C372.157593,294.402679 370.771942,297.047668 366.910950,298.516876 
	C363.809875,299.696960 360.871918,301.316895 357.897614,302.813293 
	C356.763550,303.383850 355.302490,303.805328 355.591095,305.639069 
	C356.320099,306.979828 357.481201,306.706879 358.616669,306.362457 
	C359.250214,306.170288 359.912750,305.944977 360.445740,305.569305 
	C369.113159,299.460510 377.726471,299.070831 386.581482,305.347015 
	C388.012177,306.361053 390.363159,308.012695 392.547729,305.021454 
	C389.494049,301.733521 385.208344,300.653778 381.374359,299.076111 
	C377.040649,297.292877 375.499664,294.709900 375.568604,289.980652 
	C375.838165,271.489227 375.764557,252.991257 375.641296,234.496887 
	C375.613220,230.285904 376.050354,227.434845 381.403381,227.518051 
	C385.308716,227.578766 388.204254,224.923187 390.024506,221.517563 
	C392.265503,217.324799 396.072510,218.567719 399.321838,218.923874 
	C402.776733,219.302567 402.049469,222.529694 402.202118,224.921722 
	C402.297424,226.415192 402.168976,227.921753 402.230316,229.418793 
	C402.378204,233.028519 400.675690,234.579025 397.085693,234.427765 
	C393.925629,234.294647 390.754944,234.358414 387.590271,234.412766 
	C385.819458,234.443176 383.841522,234.111206 382.827240,236.321213 
	C383.833618,239.476837 386.514709,238.572968 388.657898,238.630142 
	C403.161377,239.016922 402.231415,235.903412 402.219391,252.275955 
	C402.206909,269.271576 402.249908,286.267181 402.236359,303.262787 
	C402.230682,310.392334 400.917816,311.871643 393.823029,311.882599 
	C352.001495,311.947144 310.179901,311.933807 268.358307,311.913513 
	C266.087860,311.912415 263.369415,312.326538 262.438446,309.422394 
	C261.535736,306.606323 264.104004,305.702728 265.809052,304.578094 
	C289.841644,288.726562 301.094940,266.414154 299.753052,237.228241 
M313.229767,281.037781 
	C313.257812,288.027924 313.343353,295.018494 313.288757,302.007996 
	C313.262756,305.338715 314.712067,306.932770 318.056366,306.921875 
	C325.712189,306.896942 333.368256,306.909027 341.024078,306.940308 
	C344.325165,306.953796 345.882568,305.429504 345.852478,302.072021 
	C345.803253,296.580444 345.962646,291.087006 345.914734,285.595398 
	C345.882568,281.906494 345.581848,278.265961 349.387238,275.894073 
	C350.527496,275.183350 350.557800,273.624786 350.655548,272.252655 
	C351.085602,266.215027 343.638489,253.835403 338.062134,251.479202 
	C337.146576,251.092331 336.182526,250.591965 335.228119,250.562958 
	C329.803040,250.398010 324.274658,249.206787 319.187347,252.399765 
	C313.708130,255.838715 313.877991,263.335297 308.609711,266.936157 
	C308.177094,267.231873 308.532135,268.546722 308.334961,269.341888 
	C307.126038,274.217407 311.347321,276.651276 313.229767,281.037781 
M363.121887,237.209930 
	C363.240112,233.569275 360.412445,234.529327 358.525177,234.450897 
	C347.889282,234.008850 337.269043,235.364990 326.602631,234.534256 
	C320.151581,234.031799 313.630432,234.407669 307.140961,234.435623 
	C305.611908,234.442215 303.797150,234.650482 303.689148,236.522797 
	C303.571014,238.570786 305.434570,238.586182 306.947449,238.664413 
	C307.777649,238.707336 308.610962,238.698624 309.442871,238.698380 
	C325.417725,238.693481 341.392609,238.698380 357.367401,238.663132 
	C359.160400,238.659180 361.061371,239.054657 363.121887,237.209930 
z"/>
<path fill="#000000" opacity="1.000000" stroke="none" 
	d="
M374.264801,160.996124 
	C373.990875,169.498520 372.109497,171.325439 364.040802,171.326614 
	C317.430939,171.333344 270.821045,171.335571 224.211182,171.340515 
	C220.560364,171.340912 216.500916,171.959320 214.812973,167.561157 
	C213.035217,162.928986 212.831284,158.132950 215.238556,153.586151 
	C216.954239,150.345673 220.150330,150.673996 223.161850,150.674561 
	C262.613892,150.682083 302.065948,150.682190 341.518005,150.683670 
	C349.175354,150.683945 356.832764,150.666214 364.490082,150.685730 
	C371.970612,150.704803 374.031921,152.801895 374.264801,160.996124 
z"/>
<path fill="#000000" opacity="1.000000" stroke="none" 
	d="
M274.998047,114.204132 
	C270.335571,114.202370 266.171143,114.186646 262.006805,114.200645 
	C257.796112,114.214798 255.287994,112.223488 255.234711,107.945580 
	C255.128937,99.454155 255.150803,90.959045 255.274902,82.467735 
	C255.336349,78.263329 257.408997,76.441856 261.921021,76.355774 
	C270.747742,76.187378 279.553986,75.967789 288.378723,76.504860 
	C292.575867,76.760292 294.329712,78.800613 294.307953,82.840775 
	C294.263977,91.002769 294.270325,99.165192 294.292725,107.327332 
	C294.305267,111.910782 291.811035,114.034706 287.488495,114.175133 
	C283.494965,114.304855 279.493927,114.203041 274.998047,114.204132 
z"/>
<path fill="#000000" opacity="1.000000" stroke="none" 
	d="
M298.080200,110.256943 
	C297.867828,100.701332 297.799011,91.566315 297.737183,82.431252 
	C297.711029,78.567902 299.608826,76.553307 303.503082,76.546799 
	C312.636383,76.531540 321.769684,76.551231 330.902954,76.530067 
	C334.585052,76.521538 336.397003,78.211945 336.367493,81.989555 
	C336.299988,90.629517 336.239441,99.271866 336.376373,107.910065 
	C336.439850,111.913460 334.447113,113.974754 330.795624,114.050240 
	C321.662933,114.239037 312.522858,114.165474 303.387360,114.058319 
	C301.113434,114.031647 299.284729,112.816429 298.080200,110.256943 
z"/>
<path fill="#000000" opacity="1.000000" stroke="none" 
	d="
M376.566223,111.181198 
	C374.755005,113.534828 372.642365,114.213272 370.174957,114.203537 
	C362.696655,114.174019 355.216766,114.282295 347.740112,114.167854 
	C342.158936,114.082436 340.681091,112.491577 340.658783,106.972649 
	C340.625854,98.829567 340.740204,90.684677 340.603790,82.543709 
	C340.532623,78.299408 342.341278,76.521080 346.566956,76.570961 
	C353.205505,76.649330 359.847107,76.446251 366.487640,76.389870 
	C370.515961,76.355667 372.999939,77.852119 373.452393,82.351082 
	C374.408569,91.859795 377.138763,101.162033 376.566223,111.181198 
z"/>
<path fill="#000000" opacity="1.000000" stroke="none" 
	d="
M251.388458,103.897217 
	C251.306122,113.524582 250.607422,114.199707 241.357635,114.183327 
	C234.538696,114.171257 227.718384,114.266167 220.901169,114.157730 
	C215.091461,114.065331 213.303574,111.713776 214.510422,105.933548 
	C216.203827,97.822853 218.036774,89.741005 219.692795,81.622910 
	C220.408875,78.112595 222.344406,76.535950 225.926224,76.569633 
	C232.410980,76.630615 238.897598,76.550278 245.382874,76.478622 
	C249.458878,76.433586 251.509338,78.124512 251.410828,82.459129 
	C251.252151,89.440590 251.382126,96.428596 251.388458,103.897217 
z"/>
<path fill="#000000" opacity="1.000000" stroke="none" 
	d="
M420.318054,203.077408 
	C423.710999,205.323013 423.813171,208.319839 422.853882,211.286682 
	C421.802399,214.538437 418.856323,214.938980 415.898438,214.938324 
	C387.776245,214.932114 359.653870,214.965393 331.531952,214.872864 
	C325.782898,214.853958 324.523102,213.296051 324.601196,208.201553 
	C324.669342,203.757156 327.095184,202.616272 331.058899,202.641129 
	C345.701904,202.733002 360.346008,202.637604 374.989502,202.675690 
	C389.961365,202.714630 404.932983,202.827652 420.318054,203.077408 
z"/>
<path fill="#000000" opacity="1.000000" stroke="none" 
	d="
M377.185394,80.418022 
	C377.842407,78.363182 378.839020,77.223381 380.648376,76.715569 
	C391.774170,73.593079 403.764374,78.827888 408.840332,89.170662 
	C411.622437,94.839478 414.370605,100.528954 416.955170,106.289368 
	C418.952850,110.741661 417.113556,113.953293 412.187378,114.099266 
	C403.880035,114.345421 395.558716,114.205559 387.244751,114.105484 
	C383.298828,114.057991 381.219330,111.794167 380.714661,107.936989 
	C379.531342,98.892982 378.316010,89.853157 377.185394,80.418022 
z"/>
<path fill="#000000" opacity="1.000000" stroke="none" 
	d="
M187.061615,114.174591 
	C174.645264,114.903351 170.788467,112.847450 177.784927,100.118935 
	C179.947891,96.183884 181.657471,92.000580 183.798157,88.052109 
	C189.185333,78.115448 202.051239,73.149925 212.701141,76.804680 
	C215.261459,77.683319 216.429764,79.519928 215.849335,82.227219 
	C213.934418,91.159134 212.007446,100.088730 210.020203,109.004753 
	C209.137878,112.963371 206.210876,114.182236 202.541489,114.192154 
	C197.544373,114.205673 192.547134,114.180107 187.061615,114.174591 
z"/>
<path fill="#000000" opacity="1.000000" stroke="none" 
	d="
M346.706909,145.837006 
	C322.093292,144.839645 297.947144,146.238480 273.790619,145.603745 
	C259.662323,145.232498 245.488602,146.245773 231.335922,145.399673 
	C230.172516,145.330109 228.998245,145.378159 227.843475,145.245758 
	C226.651794,145.109116 225.388519,144.725708 225.368301,143.286163 
	C225.345337,141.652542 226.603317,140.974380 228.040146,140.905487 
	C230.534805,140.785889 233.037445,140.844131 235.536041,140.793289 
	C241.077454,140.680481 246.068726,138.994186 250.012146,135.034851 
	C252.360413,132.677078 254.313690,132.183975 256.616425,134.940353 
	C263.288971,142.927429 284.994049,143.119751 292.186890,135.393280 
	C294.759766,132.629532 296.606110,132.651077 299.610687,135.238373 
	C309.315186,143.595200 325.818878,143.224106 335.441223,134.693893 
	C337.596497,132.783249 339.284332,132.349213 341.387085,134.496109 
	C345.696899,138.896454 350.942047,140.943146 357.120178,140.867386 
	C358.943359,140.845016 361.789215,140.382187 361.613312,143.344589 
	C361.470490,145.749603 358.920715,145.284821 357.161011,145.382477 
	C353.835846,145.566986 350.506683,145.679108 346.706909,145.837006 
z"/>
<path fill="#000000" opacity="1.000000" stroke="none" 
	d="
M189.822235,170.818939 
	C189.835159,162.370392 189.930618,154.396454 189.822937,146.425278 
	C189.773392,142.757034 191.149902,140.911667 194.965302,140.678345 
	C199.946579,140.373718 204.284760,138.333618 207.754791,134.714981 
	C209.790985,132.591568 211.521301,132.582382 213.674744,134.618713 
	C215.344391,136.197601 217.397781,137.369919 219.276398,138.728806 
	C220.759628,139.801697 221.439468,141.274261 221.091690,143.059357 
	C220.701599,145.061584 219.130127,145.402618 217.351471,145.632324 
	C208.325546,146.797958 208.329102,146.831024 208.327576,156.016022 
	C208.326843,160.500702 208.256180,164.987061 208.357712,169.469452 
	C208.418869,172.169968 207.413498,173.775635 204.743027,174.621918 
	C201.906494,175.520813 199.165512,176.749832 196.438995,177.961151 
	C191.220337,180.279709 190.070129,179.584274 189.834641,173.786011 
	C189.800964,172.956757 189.824615,172.125183 189.822235,170.818939 
z"/>
<path fill="#000000" opacity="1.000000" stroke="none" 
	d="
M284.430054,135.890656 
	C278.027222,137.936310 271.938751,137.989349 265.901398,136.253433 
	C259.832428,134.508423 255.676804,129.259415 255.495102,123.640190 
	C255.378555,120.035652 256.872467,117.774261 260.614868,117.738869 
	C270.096008,117.649185 279.580872,117.592827 289.059479,117.773476 
	C293.034912,117.849236 294.701843,120.516060 293.994476,124.245323 
	C292.977234,129.608109 290.229980,133.795090 284.430054,135.890656 
z"/>
<path fill="#000000" opacity="1.000000" stroke="none" 
	d="
M322.965759,117.688049 
	C325.283264,117.690125 327.107452,117.678986 328.931366,117.695419 
	C335.732666,117.756699 337.855347,120.737099 335.714386,127.213837 
	C335.558502,127.685341 335.408325,128.168182 335.176544,128.603729 
	C330.293884,137.779221 321.665436,137.661285 313.102600,137.246887 
	C305.724365,136.889816 300.105316,132.351135 298.326965,125.929207 
	C296.787170,120.368820 298.733398,117.744469 304.563324,117.689346 
	C310.532440,117.632896 316.502594,117.683655 322.965759,117.688049 
z"/>
<path fill="#000000" opacity="1.000000" stroke="none" 
	d="
M246.923416,133.001648 
	C239.192307,138.505203 231.044693,138.369354 222.795776,135.979355 
	C217.627945,134.482056 214.452744,130.687225 213.060684,125.492706 
	C211.768356,120.670387 213.934067,117.752594 218.993393,117.702164 
	C227.309494,117.619255 235.627258,117.654404 243.943985,117.699478 
	C250.748184,117.736359 253.112198,121.410202 250.530823,127.821510 
	C249.774277,129.700546 248.627884,131.318359 246.923416,133.001648 
z"/>
<path fill="#000000" opacity="1.000000" stroke="none" 
	d="
M411.565979,136.051880 
	C405.124603,137.923431 399.014069,138.049545 393.053772,136.037720 
	C387.616425,134.202408 384.229767,130.244766 383.106476,124.555367 
	C382.329681,120.620712 384.270477,117.838364 388.257446,117.765778 
	C397.728394,117.593361 407.206451,117.618599 416.678162,117.774361 
	C420.342804,117.834625 421.935516,120.100731 421.606873,123.766876 
	C421.052063,129.955627 417.424774,133.657654 411.565979,136.051880 
z"/>
<path fill="#000000" opacity="1.000000" stroke="none" 
	d="
M177.273758,117.668045 
	C186.040726,117.673546 194.339630,117.611191 202.636627,117.709869 
	C208.144043,117.775368 209.945709,120.452736 208.468079,125.844749 
	C207.744598,128.484848 206.429321,130.692764 204.458298,132.586411 
	C197.174850,139.583923 180.750992,139.156677 173.837051,131.764984 
	C172.089081,129.896240 170.985718,127.755684 170.594162,125.193436 
	C169.771713,119.811531 171.113464,118.137733 177.273758,117.668045 
z"/>
<path fill="#000000" opacity="1.000000" stroke="none" 
	d="
M375.778137,131.665863 
	C368.001282,138.480682 354.965057,139.484909 346.712982,134.192444 
	C343.772552,132.306564 341.918823,129.601120 341.000580,126.304321 
	C339.423187,120.640823 341.639130,117.753815 347.595642,117.706520 
	C355.236877,117.645844 362.879059,117.671585 370.520721,117.692505 
	C379.165192,117.716171 381.399048,121.501320 377.372864,129.284836 
	C376.993469,130.018326 376.471130,130.677856 375.778137,131.665863 
z"/>
<path fill="#000000" opacity="1.000000" stroke="none" 
	d="
M371.215515,224.003494 
	C367.174805,223.936661 363.392944,224.324066 361.108307,219.403198 
	C369.465637,218.088791 377.359833,218.682114 385.534912,218.996323 
	C385.234619,223.265533 382.347687,223.728409 379.633240,223.989349 
	C377.004852,224.242035 374.330078,224.012161 371.215515,224.003494 
z"/>
<path fill="#000000" opacity="1.000000" stroke="none" 
	d="
M210.667282,259.476196 
	C211.265945,267.739685 211.688171,275.549255 212.322144,283.341583 
	C212.646912,287.333282 210.591263,288.122192 207.211212,288.046478 
	C203.847641,287.971100 201.364502,287.597504 201.623383,283.163666 
	C202.447357,269.051086 202.986435,254.922134 203.751862,240.805817 
	C203.928192,237.553864 203.183807,235.354446 200.201492,233.360168 
	C195.557526,230.254745 194.085724,222.810699 196.500534,216.452728 
	C198.395645,211.463013 200.699203,205.305756 206.381302,205.003525 
	C212.300720,204.688660 214.629089,211.005707 216.758667,215.794647 
	C220.169449,223.464813 218.332504,229.608826 211.554337,234.460388 
	C209.818161,235.703064 208.990677,237.163773 209.399597,239.092773 
	C210.796951,245.684372 209.882767,252.394547 210.667282,259.476196 
z"/>
<path fill="#000000" opacity="1.000000" stroke="none" 
	d="
M319.315491,303.129272 
	C318.699371,302.975128 318.497192,302.948517 318.403229,302.833466 
	C316.585358,300.607544 315.785370,281.457184 317.403717,279.214294 
	C318.412659,277.816040 319.915436,277.729095 321.428528,277.725525 
	C326.747833,277.712982 332.067993,277.777954 337.386200,277.700348 
	C340.715942,277.651764 342.286316,279.127655 342.261505,282.476898 
	C342.220947,287.961823 342.221222,293.448334 342.310608,298.932465 
	C342.363068,302.149017 340.820923,303.385651 337.730072,303.331757 
	C331.747803,303.227386 325.763367,303.247223 319.315491,303.129272 
z"/>
<path fill="#000000" opacity="1.000000" stroke="none" 
	d="
M336.917572,266.672058 
	C339.395996,266.704407 341.388519,266.707916 343.378571,266.780365 
	C345.345795,266.851990 346.441620,267.969391 346.620850,269.876587 
	C346.820618,272.002228 345.807831,273.696899 343.720184,273.831512 
	C334.275482,274.440613 324.812012,274.536957 315.369202,273.800079 
	C313.102997,273.623230 312.607452,271.763580 312.739471,269.717438 
	C312.895813,267.295044 314.497070,266.732758 316.506989,266.723053 
	C323.148102,266.691071 329.789398,266.687744 336.917572,266.672058 
z"/>
<path fill="#000000" opacity="1.000000" stroke="none" 
	d="
M340.930145,258.885193 
	C341.838898,262.653503 339.555634,263.176086 337.043915,263.221069 
	C332.079437,263.309967 327.112427,263.265961 322.146484,263.261841 
	C320.430237,263.260437 318.735962,263.064117 318.113525,261.112976 
	C317.508240,259.215637 318.831085,257.950348 319.956360,256.795685 
	C324.893555,251.729752 335.650452,252.676865 340.930145,258.885193 
z"/>
</svg>