<svg width="24" height="24" viewBox="0 0 24 24" fill="none" xmlns="http://www.w3.org/2000/svg">
<path d="M12 2C6.47715 2 2 6.47715 2 12C2 17.5228 6.47715 22 12 22C17.5228 22 22 17.5228 22 12C22 6.47715 17.5228 2 12 2Z" stroke="#FFC107" stroke-width="2" stroke-linecap="round" stroke-linejoin="round"/>
<path d="M12 6C9.79086 6 8 7.79086 8 10C8 12.2091 9.79086 14 12 14C14.2091 14 16 12.2091 16 10C16 7.79086 14.2091 6 12 6Z" stroke="#FFC107" stroke-width="2" stroke-linecap="round" stroke-linejoin="round"/>
<path d="M7 18.5C7.38959 17.7288 8.05315 17.0653 8.87789 16.5921C9.70263 16.119 10.8494 15.8611 12 15.8611C13.1506 15.8611 14.2974 16.119 15.1221 16.5921C15.9469 17.0653 16.6104 17.7288 17 18.5" stroke="#FFC107" stroke-width="2" stroke-linecap="round" stroke-linejoin="round"/>
</svg>
