<svg xmlns="http://www.w3.org/2000/svg" width="24" height="24" viewBox="0 0 24 24" fill="none">
  <rect width="100%" height="100%" fill="#020817" rx="4"/>
  <g stroke="hsl(45 90% 45%)" stroke-width="2" stroke-linecap="round" stroke-linejoin="round" transform="translate(3 3) scale(0.75)">
    <path d="m2 7 4.41-4.41A2 2 0 0 1 7.83 2h8.34a2 2 0 0 1 1.42.59L22 7"/>
    <path d="M4 12v8a2 2 0 0 0 2 2h12a2 2 0 0 0 2-2v-8"/>
    <path d="M15 22v-4a2 2 0 0 0-2-2h-2a2 2 0 0 0-2 2v4"/>
    <path d="M2 7h20"/>
    <path d="M22 7v3a2 2 0 0 1-2 2H4a2 2 0 0 1-2-2V7"/>
  </g>
</svg>